<svg xmlns="http://www.w3.org/2000/svg" width="238.732" height="270.697" viewBox="0 0 63.164 71.622" xmlns:v="https://vecta.io/nano"><path d="M31.191 9.571h20.445V59.41H31.191z" fill="#fff"/><path d="M11.482 8.13h19.848v50.261H11.482z" fill="#ebebeb"/><path d="M31.327 62.061v-4.027l.241-.091.241-.091 7.903-2.173 7.903-2.173.029-.021.029-.021 1.752-19.564 1.752-19.564.101-.723.101-.723H41.352 31.327V8.939 4.987h13.01 13.341v.122.122L55.27 32.432l-2.339 27.537-.048.371-.048.371-10.643 2.85-10.312 2.85-.241.01-.241.01zm0-26.81V20.989l11.377-.196-.101.723-.101.723-1.173 12.432-1.173 12.432-.125.115-.125.115-4.077 1.09-4.077 1.09h-.212-.212V35.25z" fill="#8acc19"/><path d="M18.639 68.044L5.732 64.466 2.865 32.314-.001.162.081.081.162 0l31.501.049 31.501.049-2.825 31.611-2.825 31.611-.07.573-.07.573-9.252 2.564-9.252 2.564-3.662 1.015-3.662 1.015zm23.605-4.796l10.312-2.85.048-.371.048-.371 2.409-27.199 2.409-27.199v-.122-.122h-13.01-13.01v3.951 3.951h-9.926-9.926l.018 1.012.018 1.012.223 2.988.223 2.988 9.686.05 9.686.05v14.262 14.262h-.048-.048l-4.312-1.147-4.312-1.146-.044-.057-.044-.057-.27-3.084-.27-3.084-3.999-.052-4-.052.002.534.002.534.466 5.752.466 5.753.081.081.081.081 7.305 2.003 7.305 2.003.819.217.819.217v4.04 4.04l.241-.01.241-.01 10.312-2.85z" fill="#62a713"/></svg>