<svg xmlns="http://www.w3.org/2000/svg" height="48" width="48" xmlns:v="https://vecta.io/nano"><path d="M23.151 27.073c-8.505-.041-13.714 5.312-13.714 5.312l-1.716 4.531 2.501 1.498 13.62 1.569c-3.498-3.991-3.033-8.595-.692-12.91z" fill="#fff"/><path d="M22.05 23q-3.15 0-5.35-2.2-2.2-2.2-2.2-5.3 0-3.15 2.2-5.325Q18.9 8 22 8q3.15 0 5.325 2.175Q29.5 12.35 29.5 15.45q0 3.15-2.175 5.35Q25.15 23 22.05 23ZM22 20q1.9 0 3.2-1.325 1.3-1.325 1.3-3.175 0-1.9-1.3-3.2-1.3-1.3-3.15-1.3-1.9 0-3.225 1.3-1.325 1.3-1.325 3.15 0 1.9 1.325 3.225Q20.15 20 22 20Zm21.85 25.95L37.9 40q-1.15.85-2.375 1.175Q34.3 41.5 33 41.5q-3.55 0-6.025-2.475Q24.5 36.55 24.5 33q0-3.55 2.475-6.025Q29.45 24.5 33 24.5q3.55 0 6.025 2.475Q41.5 29.45 41.5 33q0 1.3-.325 2.525Q40.85 36.75 40 37.9l5.95 5.95q.45.45.45 1.05 0 .6-.45 1.05-.45.45-1.05.45-.6 0-1.05-.45ZM33 38.5q2.35 0 3.925-1.575Q38.5 35.35 38.5 33q0-2.35-1.575-3.925Q35.35 27.5 33 27.5q-2.35 0-3.925 1.575Q27.5 30.65 27.5 33q0 2.35 1.575 3.925Q30.65 38.5 33 38.5ZM23.9 40H9q-1.25 0-2.125-.875T6 37v-1.7q0-1.85.875-3.15Q7.75 30.85 9.4 30q2.35-1.15 6.125-2.175t7.675-.775q-.4.65-.75 1.425T21.9 30q-3.9-.05-6.8.925-2.9.975-4.5 1.775-.7.4-1.15 1.075Q9 34.45 9 35.3V37h12.9q.55.85 1 1.575.45.725 1 1.425ZM22 15.5ZM21.9 37Z" fill="#0077b6"/><path d="M21.059 19.915c-2.604-.595-4.16-3.233-3.382-5.732.388-1.247 1.303-2.277 2.521-2.839.484-.223.766-.263 1.847-.263 1.071 0 1.365.041 1.831.256.828.382 1.85 1.417 2.245 2.272.296.642.333.848.333 1.883 0 1.079-.027 1.218-.379 1.933-.939 1.907-3.029 2.945-5.016 2.49zm10.473 18.434c-2.75-.773-4.429-3.378-3.992-6.193.195-1.255.675-2.207 1.551-3.077 1.12-1.111 2.271-1.575 3.918-1.577 3.169-.005 5.457 2.287 5.473 5.484.012 2.372-1.323 4.372-3.463 5.189-.875.334-2.61.42-3.488.174z" fill="#fff"/></svg>