<svg xmlns="http://www.w3.org/2000/svg" width="238.734" height="270.693" viewBox="0 0 63.165 71.621" xmlns:v="https://vecta.io/nano"><path d="M31.259 12.203h20.347v49.619H31.259z" fill="#fff"/><path d="M11.551 10.543h19.84V60.13h-19.84z" fill="#ebebeb"/><path d="M31.427 62.082V58.05l-.241-.088-.241-.088.482.014.482.014 7.903-2.193 7.903-2.193.051-.032.051-.032 1.056-12.028 1.056-12.028.68-7.806.68-7.806-.004-.337-.004-.337h-9.93-9.93l.052-4 .052-3.999 12.962-.049 13.458.01v.237.237l-4.822 54.623-.047.366-.047.366-10.808 2.8-10.312 2.86h-.241-.241zm.005-12.738l-.005-6.085v-6.054l9.854-.197-.108.819-.108.819-.404 4.24-.404 4.241-.03.02-.03.02-4.401 1.184c-.263.171-4.364.991-4.364.991zm-.005-20.434V24.96v-3.949h5.677 5.677l-.102.916-.102.916-.645 6.168" fill="#29a5dd"/><path d="M18.671 68.055L5.798 64.488l-.082-.391-.082-.391-2.817-31.772L0 .161l.08-.08.08-.08L31.662.05l31.503.049-2.826 31.611-2.826 31.611-.07.573-.07.573-9.252 2.564-9.252 2.564-3.662 1.014-3.662 1.014zm23.57-4.804l10.312-2.86.047-.366.047-.366 2.411-27.086 2.411-27.086v-.237-.237l-12.962.049-12.962.05-.052 3.999-.052 3.999h-9.826-9.826l.006.819.006.819.278 2.795.278 2.795.006.337.006.337h9.541 9.541v3.951 3.951h-9.144-9.144l-.077.145-.077.145.343 3.662.343 3.662.012.337.012.337h8.866 8.866v6.072 6.072h-.145-.145l-4.144-1.097-4.144-1.097-.134-.112-.134-.112-.201-2.12-.201-2.12-.113-1.012-.113-1.012h-4.13-4.13l.005.241.005.241.546 6.034.546 6.034.172.16.172.16 7.421 2.044 7.421 2.044.723.204.723.204v4.039 4.039h.241.241l10.312-2.86z" fill="#006fb9"/></svg>