<svg xmlns="http://www.w3.org/2000/svg" width="238.918" height="270.271" viewBox="0 0 63.214 71.509" xmlns:v="https://vecta.io/nano"><path d="M31.552 9.978h19.84v49.586h-19.84z" fill="#fff"/><path d="M11.844 8.285h19.84v49.586h-19.84z" fill="#ebebeb"/><path d="M31.46 61.843l.038-3.737 8.224-2.526 7.999-2.214.071-.055.071-.055 1.031-11.43 1.031-11.43.006-.723-.016-.571H40.76h-9.156l-.156-4.199.05-3.908h9.673 9.532l.087-.766.099-.626.201-2.409.201-2.409.112-.916.112-.916-20.001-.059-.032-.196v-3.95l.116-4.166 13.059.059h12.914l.001.434v.434l-4.85 54.932-.13.116-.13.116-10.216 2.825-10.443 2.745-.148-.001-.148-.001-.047-4.396zm.124-18.558l-.088-6.054 9.818-.197-.117.927-.117 1.108-.302 3.662-.302 3.662-.079.386-.079.386-1.984.528-1.984.528-2.409.649-2.409.649z" fill="#ef6328"/><path d="M18.407 67.989L5.878 64.501l-.071-.052-.071-.052-2.863-32.054L.009.29.004.145-.001.001h31.607 31.607l-.102.819-.102.819-2.786 31.312-2.786 31.312-.144.132-.144.132-12.625 3.491-12.625 3.491-.482-.016-.482-.017-12.529-3.488zm23.708-4.698l10.216-2.825.13-.116.13-.116 2.424-27.177L57.439 5.88v-.434l-.001-.434H44.524 31.61v3.951 3.951h-9.915-9.915l-.083.145-.083.145 1.046 11.758 1.046 11.758.08.241.08.241h8.872 8.872v6.168 6.168h-.145l-.145-.001-4.205-1.136-4.205-1.136-.06-.068-.06-.068-.265-3.084-.265-3.084-4.103-.052-4.103-.052.109.919.109.919.477 5.381.477 5.381.051.051.051.051 8.14 2.262 8.14 2.262v4.015 4.015l.145.001h.145l10.216-2.825zm-20.986-35.1l-.109-.916-.203-2.506-.203-2.506-.1-.626-.1-.626h5.598 5.598v4.048 4.048h-5.186-5.186z" fill="#e34c25"/></svg>